<svg width="39" height="64" viewBox="0 0 39 64" fill="none" xmlns="http://www.w3.org/2000/svg">
<g id="Group 7">
<path id="." d="M29.2954 63.7273C28.0579 63.7273 26.9954 63.288 26.1079 62.4093C25.2329 61.5181 24.7954 60.4511 24.7954 59.2085C24.7954 57.9783 25.2329 56.9239 26.1079 56.0453C26.9954 55.1666 28.0579 54.7273 29.2954 54.7273C30.4954 54.7273 31.5454 55.1666 32.4454 56.0453C33.3454 56.9239 33.7954 57.9783 33.7954 59.2085C33.7954 60.0369 33.5829 60.7963 33.1579 61.4867C32.7454 62.1645 32.2017 62.7106 31.5267 63.1248C30.8517 63.5265 30.1079 63.7273 29.2954 63.7273Z" fill="white"/>
<path id="T" d="M0 24.5682V16.4545H38.2273V24.5682H23.9773V63H14.25V24.5682H0Z" fill="white"/>
<path id="2" d="M0.141371 53.8182V45.5523L17.1181 27.6693C18.5619 26.0797 19.7729 24.6491 20.7509 23.3774C21.7446 22.1057 22.4975 20.8606 23.0099 19.6419C23.5222 18.4055 23.7783 17.072 23.7783 15.6414C23.7783 14.0518 23.7783 14.8731 22.8236 11.5349C22.187 10.3692 21.3176 9.47729 20.2153 8.85912C19.1131 8.22328 17.8633 7.90536 16.466 7.90536C15.0067 7.90536 13.7336 8.24094 12.6468 8.9121C11.5601 9.58327 10.7217 10.5459 10.1318 11.7999C9.54182 13.0539 9.24685 16.2772 9.24685 16.2772H0.141357C0.141357 12.7271 1.31451 10.5194 2.72729 7.90536C4.14008 5.29136 5.68118 3.43063 8.22729 2C10.7734 0.569361 13.1436 0 16.466 0C19.8815 0 22.1967 0.622346 24.7273 2C27.2734 3.35998 28.8145 4.58028 30.2273 7C31.6401 9.41972 32.2273 11.3738 32.2273 14.5C32.2273 16.5488 31.4415 19.5042 30.7273 21.5C30.0131 23.4958 29.0282 25.232 27.2273 27.6693C25.4264 30.089 21.9287 33.6939 19.2273 37L11.7273 45.5523L14.7273 45.5523H23.7783H34.1414V53.8182H0.141371Z" fill="white"/>
</g>
</svg>
