<svg width="64" height="64" viewBox="0 0 64 64" fill="none" xmlns="http://www.w3.org/2000/svg">
<path fill-rule="evenodd" clip-rule="evenodd" d="M7.85175 51.3484V56.8618H17.2342V50.4844H17.0721V50.1964L17.2342 50.0081V40.8413L7.85175 51.3484ZM25.5542 50.4844V56.8618H33.1358V50.4844H25.5542ZM25.5542 30.0561V40.4083C26.9483 38.7857 28.0948 37.3442 28.9938 36.0838C30.3265 34.2323 31.2569 32.5454 31.7852 31.023C32.3134 29.5007 32.5775 27.9509 32.5775 26.3737C32.5775 24.0147 32.0553 21.9164 31.0108 20.0786C29.9783 18.2408 28.5256 16.7938 26.6527 15.7378C26.2973 15.5374 25.9312 15.3561 25.5542 15.1937V23.7014C25.9624 24.5741 26.1665 25.5951 26.1665 26.7646C26.1665 27.9303 25.9624 29.0275 25.5542 30.0561ZM13.6505 15.779C14.751 15.1464 15.9455 14.6985 17.2342 14.4352V20.9923C17.1054 21.0596 16.9794 21.1322 16.856 21.21C15.9436 21.7723 15.2353 22.5747 14.731 23.617C14.2388 24.6593 13.9927 25.9005 13.9927 27.3406H7.63564C7.63564 24.6662 8.1699 22.3415 9.23841 20.3666C10.3069 18.3916 11.7776 16.8624 13.6505 15.779Z" fill="black"/>
<path fill-rule="evenodd" clip-rule="evenodd" d="M0 0V8.20835H17.2342V14.4352C18.1529 14.2476 19.1193 14.1537 20.1336 14.1537C22.1375 14.1537 23.9444 14.5004 25.5542 15.1937V8.20835H42.8154V0H0ZM25.3741 23.3496C25.438 23.464 25.498 23.5813 25.5542 23.7014V30.0561C25.146 31.0847 24.5337 32.1476 23.7173 33.2448C22.9009 34.342 21.8804 35.5969 20.6559 37.0096L17.2342 40.8413V20.9923C18.0584 20.5614 18.9949 20.346 20.0436 20.346C21.2201 20.346 22.2706 20.6066 23.1951 21.1277C24.1195 21.6489 24.8459 22.3895 25.3741 23.3496ZM25.5542 40.4083C24.9003 41.1693 24.192 41.9702 23.4292 42.8109L17.2342 50.0081V50.4844H25.5542V40.4083ZM25.5542 56.8618H17.2342V63.1981H25.5542V56.8618Z" fill="black"/>
<path d="M57.5172 64.0004C55.7343 64.0004 54.2036 63.2804 52.925 61.8403C51.6644 60.3797 51.0341 58.631 51.0341 56.5944C51.0341 54.5783 51.6644 52.8502 52.925 51.4102C54.2036 49.9701 55.7343 49.2501 57.5172 49.2501C59.246 49.2501 60.7587 49.9701 62.0554 51.4102C63.352 52.8502 64.0003 54.5783 64.0003 56.5944C64.0003 57.9522 63.6941 59.1968 63.0818 60.3283C62.4876 61.4392 61.7042 62.3341 60.7317 63.0129C59.7593 63.6713 58.6877 64.0004 57.5172 64.0004Z" fill="black"/>
<path d="M17.2342 40.8413L20.6559 37.0096C21.8804 35.5969 22.9009 34.342 23.7173 33.2448C24.5337 32.1476 25.146 31.0847 25.5542 30.0561V40.4083C24.9003 41.1693 24.192 41.9702 23.4292 42.8109L17.2342 50.0081V40.8413Z" fill="black"/>
<path fill-rule="evenodd" clip-rule="evenodd" d="M20.1336 14.1537C22.1375 14.1537 23.9444 14.5004 25.5542 15.1937V23.7014C25.498 23.5813 25.438 23.464 25.3741 23.3496C24.8459 22.3895 24.1195 21.6489 23.1951 21.1277C22.2706 20.6066 21.2201 20.346 20.0436 20.346C18.9949 20.346 18.0584 20.5614 17.2342 20.9923V14.4352C18.1529 14.2476 19.1193 14.1537 20.1336 14.1537Z" fill="black"/>
<path fill-rule="evenodd" clip-rule="evenodd" d="M17.2342 50.4844H25.5542V56.8618H17.2342V50.4844Z" fill="black"/>
</svg>
